<?xml version="1.0" standalone="no"?>
<!DOCTYPE svg PUBLIC "-//W3C//DTD SVG 20010904//EN"
 "http://www.w3.org/TR/2001/REC-SVG-20010904/DTD/svg10.dtd">
<svg version="1.0" xmlns="http://www.w3.org/2000/svg"
 width="1280.000000pt" height="1280.000000pt" viewBox="0 0 1280.000000 1280.000000"
 preserveAspectRatio="xMidYMid meet">
<metadata>
Created by potrace 1.16, written by Peter Selinger 2001-2019
</metadata>
<g transform="translate(0.000000,1280.000000) scale(0.100000,-0.100000)"
fill="#000000" stroke="none">
<path d="M5945 12790 c-544 -43 -1045 -142 -1535 -302 -1913 -625 -3417 -2109
-4071 -4018 -133 -388 -236 -828 -289 -1237 -40 -312 -45 -402 -45 -833 0
-431 5 -521 45 -834 125 -961 475 -1898 1015 -2711 610 -919 1453 -1668 2435
-2164 752 -380 1465 -585 2345 -673 207 -21 945 -17 1160 5 656 69 1209 204
1793 438 218 87 667 308 862 425 1161 693 2051 1694 2599 2926 246 552 422
1186 495 1788 38 310 41 360 41 800 0 440 -3 490 -41 800 -164 1344 -779 2641
-1714 3615 -420 438 -860 788 -1380 1100 -204 121 -648 339 -885 433 -561 223
-1098 354 -1725 424 -148 16 -265 21 -590 23 -223 2 -454 -1 -515 -5z m850
-651 c1091 -72 2157 -467 3045 -1128 420 -313 858 -751 1171 -1171 546 -733
909 -1583 1063 -2485 55 -327 76 -587 76 -955 0 -355 -20 -621 -71 -925 -305
-1831 -1452 -3390 -3099 -4215 -691 -346 -1392 -539 -2175 -600 -181 -14 -624
-14 -813 0 -2034 152 -3825 1348 -4732 3160 -327 653 -513 1301 -592 2060 -18
169 -18 871 0 1040 72 697 243 1325 522 1920 889 1893 2736 3159 4815 3300
276 19 500 18 790 -1z"/>
<path d="M6918 8301 c-26 -10 -60 -29 -77 -42 -16 -13 -329 -361 -695 -773
-735 -828 -706 -789 -706 -926 0 -137 -29 -98 706 -926 366 -412 678 -759 692
-771 46 -38 126 -63 202 -63 188 0 320 132 320 320 0 135 19 110 -600 806
-308 346 -560 631 -560 634 0 3 252 288 560 634 619 696 600 671 600 806 0
190 -132 321 -323 320 -45 -1 -89 -8 -119 -19z"/>
</g>
</svg>
