<?xml version="1.0" standalone="no"?>
<!DOCTYPE svg PUBLIC "-//W3C//DTD SVG 20010904//EN"
 "http://www.w3.org/TR/2001/REC-SVG-20010904/DTD/svg10.dtd">
<svg version="1.0" xmlns="http://www.w3.org/2000/svg"
 width="1280.000000pt" height="768.000000pt" viewBox="0 0 1280.000000 768.000000"
 preserveAspectRatio="xMidYMid meet">
<metadata>
Created by potrace 1.16, written by Peter Selinger 2001-2019
</metadata>
<g transform="translate(0.000000,768.000000) scale(0.100000,-0.100000)"
fill="#000000" stroke="none">
<path d="M5884 7665 c-197 -45 -374 -141 -519 -282 -52 -50 -279 -290 -327
-345 -9 -11 -47 -52 -85 -92 -84 -89 -124 -132 -1098 -1176 -434 -465 -843
-903 -909 -974 -67 -71 -128 -137 -136 -146 -8 -9 -69 -75 -136 -146 -67 -71
-476 -509 -909 -974 -434 -465 -843 -903 -909 -974 -67 -71 -128 -137 -136
-146 -14 -16 -171 -184 -348 -373 -118 -126 -195 -234 -258 -361 -78 -161
-105 -274 -111 -466 -3 -90 -1 -185 6 -226 68 -443 395 -827 808 -950 108 -32
310 -44 429 -24 155 24 309 93 450 198 89 67 159 142 2877 3055 881 944 897
960 1081 1051 141 69 263 98 421 99 146 0 244 -19 374 -72 211 -88 224 -100
1135 -1075 451 -484 828 -887 836 -896 8 -10 71 -77 140 -150 69 -73 132 -141
140 -150 8 -9 69 -75 136 -146 66 -71 438 -469 825 -884 388 -415 727 -773
754 -796 150 -123 328 -207 499 -234 120 -20 321 -8 431 24 412 123 733 501
805 948 20 125 8 360 -24 483 -43 160 -127 323 -230 450 -29 35 -579 628
-1222 1316 -2149 2304 -3006 3221 -3414 3659 -223 239 -434 463 -470 498 -127
122 -291 217 -455 263 -102 28 -355 36 -451 14z"/>
</g>
</svg>
