<svg height="60" viewBox="0 0 60 60" width="60" xmlns="http://www.w3.org/2000/svg"><g id="Page-1" fill="none" fill-rule="evenodd"><g id="033---Mountain-Summit" fill-rule="nonzero"><path id="Shape" d="m44.47 41.48-5.69 7.32c-.1881007.2415137-.4764604.3835669-.7825763.3855167s-.5962618-.1364187-.7874237-.3755167l-2.38-2.98c-.1950765-.2472037-.4951996-.3880785-.8100052-.3802084-.3148056.0078702-.6075145.1635658-.7899948.4202084l-3.36 4.71c-.1939563.2710368-.5101956.4276306-.8433312.4175964s-.6393769-.1853774-.8166688-.4675964l-3.46-5.54c-.1725683-.2747847-.4677336-.448758-.7917189-.4666468-.3239853-.0178887-.6365097.1225311-.8382811.3766468l-2.37 2.96c-.1869854.2317648-.4675345.3681369-.7652986.372004-.2977642.003867-.5817602-.1251733-.7747014-.352004l-4.6-5.37 14.62-16.17c.1982339-.2151549.4774452-.3375573.77-.3375573s.5717661.1224024.77.3375573z" fill="#f5f5f5"/><path id="Shape" d="m30.77 26.34c-.1982339-.2151549-.4774452-.3375573-.77-.3375573s-.5717661.1224024-.77.3375573l-.73.807 12.97 14.333-4.989 6.42.729.912c.1911619.239098.4813078.3774665.7874237.3755167s.5944756-.144003.7825763-.3855167l5.69-7.32z" fill="#cfd8dc"/><path id="Shape" d="m57.95 59h-55.9c-.4144298.0007366-.79036809-.2428177-.95908553-.6213504-.16871744-.3785328-.09852026-.8209361.17908553-1.1286496l13.34-14.74 4.6 5.37c.1929412.2268307.4769372.355871.7747014.352004.2977641-.0038671.5783132-.1402392.7652986-.372004l2.37-2.96c.2017714-.2541157.5142958-.3945355.8382811-.3766468.3239853.0178888.6191506.1918621.7917189.4666468l3.46 5.54c.1772919.282219.4835332.4575622.8166688.4675964s.6493749-.1465596.8433312-.4175964l3.36-4.71c.1824803-.2566426.4751892-.4123382.7899948-.4202084.3148056-.0078701.6149287.1330047.8100052.3802084l2.38 2.98c.1911619.239098.4813078.3774665.7874237.3755167s.5944756-.144003.7825763-.3855167l5.69-7.32 14.26 15.77c.2776058.3077135.347803.7501168.1790855 1.1286496-.1687174.3785327-.5446557.622087-.9590855.6213504z" fill="#7f8e94"/><path id="Shape" d="m58.73 57.25-14.26-15.77-1.387 1.784 12.647 13.986c.2776058.3077135.347803.7501168.1790855 1.1286496-.1687174.3785327-.5446557.622087-.9590855.6213504h3c.4144298.0007366.7903681-.2428177.9590855-.6213504.1687175-.3785328.0985203-.8209361-.1790855-1.1286496z" fill="#545c60"/><path id="Shape" d="m48 4v9h-18v-10h17c.5522847 0 1 .44771525 1 1z" fill="#f44335"/><path id="Shape" d="m47 3h-3c.5522847 0 1 .44771525 1 1v9h3v-9c0-.55228475-.4477153-1-1-1z" fill="#c81e1e"/><path id="Shape" d="m56.71 17.29c.2884599.2860905.3751619.7182668.219371 1.0934815-.155791.3752147-.5231059.6188811-.929371.6165185h-13c-.5086833.0061278-.9985778-.1919913-1.36-.55l6.36-5.45v-4h8c.4062651-.00236262.77358.24130378.929371.61651849.1557909.37521472.0690889.80739101-.219371 1.09348151l-2.59 2.58c-.3899779.3930079-.3899779 1.0269921 0 1.42z" fill="#f44335"/><path id="Shape" d="m54.12 14.71c-.3899779-.3930079-.3899779-1.0269921 0-1.42l2.59-2.58c.2884599-.2860905.3751619-.71826679.219371-1.09348151-.155791-.37521471-.5231059-.61888111-.929371-.61651849h-3c.4062651-.00236262.77358.24130378.929371.61651849.1557909.37521472.0690889.80739101-.219371 1.09348151l-2.59 2.58c-.3899779.3930079-.3899779 1.0269921 0 1.42l2.59 2.58c.2884599.2860905.3751619.7182668.219371 1.0934815-.155791.3752147-.5231059.6188811-.929371.6165185h3c.4062651.0023626.77358-.2413038.929371-.6165185.1557909-.3752147.0690889-.807391-.219371-1.0934815z" fill="#c81e1e"/><path id="Shape" d="m48 13-6.36 5.45c-.4060177-.3730693-.6379821-.8986136-.64-1.45v-4z" fill="#c81e1e"/><g fill="#000"><path id="Shape" d="m29.258 30.78-9.541 10.549c-.370583.4095191-.3390191 1.0419169.0705 1.4125.4095192.370583 1.0419169.3390191 1.4125-.0705l9.541-10.549c.3705831-.4097953.3387953-1.0424169-.071-1.413s-1.0424169-.3387953-1.413.071z"/><path id="Shape" d="m13.258 48.471-4.394 4.858c-.37058303.4095191-.33901909 1.0419169.07050003 1.4125.40951913.370583 1.0419169.3390191 1.41249997-.0705l4.4-4.858c.3705831-.4097953.3387953-1.0424169-.071-1.413s-1.0424169-.3387953-1.413.071z"/><path id="Shape" d="m30 0c-.5522847 0-1 .44771525-1 1v24.287c-.466.248 1.763-2.134-28.469 31.292-.54320321.5998731-.68200254 1.4634587-.35412983 2.2033351.3278727.7398763 1.06086026 1.2171337 1.87012983 1.2176649h55.906c.8092696-.0005312 1.5422571-.4777886 1.8701298-1.2176649.3278727-.7398764.1890734-1.603462-.3541298-2.2033351-29.917-33.079-27.969-31.026-28.469-31.292v-11.287h9v3c0 1.6568542 1.3431458 3 3 3h13c.8103708.0010473 1.5412798-.4870148 1.8508752-1.2359157s.1366789-1.6106041-.4378752-2.1820843l-2.587-2.582 2.59-2.581c.5756666-.5717676.7488552-1.43467016.4383966-2.18428726-.3104585-.7496171-1.0430378-1.23739028-1.8543966-1.23471274h-7v-4c0-1.1045695-.8954305-2-2-2h-16v-1c0-.55228475-.4477153-1-1-1zm27.953 58-55.938-.08 12.585-13.883 3.849 4.492c.387618.4515813.9557361.7077411 1.5508001.6992429.595064-.0084981 1.1556355-.2807768 1.5301999-.7432429l2.37-2.965 3.457 5.535c.3531461.5672837.966274.9207229 1.6341585.9420148.6678845.021292 1.3022795-.2923765 1.6908415-.8360148l3.365-4.707 2.38 2.981c.382476.4780767.9628573.7546305 1.5750897.7505359.6122324-.0040945 1.1888628-.2883863 1.5649103-.7715359l4.956-6.375zm-14.79-16.468-5.172 6.654-2.383-2.986c-.3915946-.4903523-.9906325-.7684801-1.6179224-.7511863-.62729.0172937-1.2100942.3280035-1.5740776.8391863l-3.358 4.712-3.465-5.548c-.348064-.5440784-.9367026-.887398-1.5816361-.9224789-.6449334-.0350809-1.2673383.2423645-1.6723639.7454789l-2.37 2.954-4.014-4.686 14.078-15.528zm2.137-27.532-3.3 2.825v-2.825zm10.7-4-2.589 2.581c-.3773945.3753763-.589583.8857087-.589583 1.418s.2121885 1.0426237.589583 1.418l2.589 2.583h-12.3l4.949-4.241-.008-.009c.2246037-.1846766.3560264-.4592365.359-.75v-3zm-9-6v8h-16v-8z"/><path id="Shape" d="m34 8h10c.5522847 0 1-.44771525 1-1s-.4477153-1-1-1h-10c-.5522847 0-1 .44771525-1 1s.4477153 1 1 1z"/></g></g></g></svg>