<?xml version="1.0" ?><svg enable-background="new 0 0 128 128" id="Layer_1" version="1.1" viewBox="0 0 128 128" xml:space="preserve" xmlns="http://www.w3.org/2000/svg" xmlns:xlink="http://www.w3.org/1999/xlink"><g><g><g><path d="M128,64c0,35.35-28.65,64-64,64c-25.82,0-48.07-15.29-58.18-37.3C2.08,82.57,0,73.53,0,64     C0,28.65,28.65,0,64,0c25.28,0,47.14,14.66,57.54,35.94C125.68,44.41,128,53.93,128,64z" fill="#2979A2"/></g></g><g><g><g><g><path d="M128,64c0,15.56-5.55,29.82-14.77,40.91l-97.05,1.63C9.68,99.25,4.83,90.46,2.22,80.75       c0.92-0.98,2.15-1.95,4.08-2.9c6.71-3.3,8.48,0.29,15.2-3.01c6.71-3.3,4.94-6.89,11.65-10.19c6.72-3.3,8.48,0.29,15.19-3.01       c6.71-3.3,4.95-6.89,11.66-10.19c6.71-3.3,8.47,0.29,15.18-3.01s4.95-6.89,11.66-10.19c6.71-3.3,8.48,0.29,15.19-3.01       c6.71-3.3,4.94-6.89,11.65-10.19c0.28-0.14,0.55-0.26,0.82-0.37C122.96,35.53,128,49.17,128,64z" fill="#65C7CF"/></g></g></g></g><g><g opacity="0.6"><g><polygon fill="#FFFFFF" points="103.41,53.623 98.529,51.193 98.529,50.723 102.803,52.851 103.194,52.066 98.529,49.744       98.529,49.274 102.587,51.295 102.978,50.51 98.529,48.294 98.529,47.825 102.371,49.738 102.762,48.953 98.529,46.845       98.529,46.375 102.155,48.181 102.546,47.396 98.529,45.396 98.529,44.926 101.94,46.624 102.33,45.839 98.529,43.947       98.529,43.477 101.724,45.068 102.114,44.283 98.529,42.497 98.529,42.028 101.508,43.511 101.899,42.726 98.529,41.048       98.529,41.003 97.928,40.035 97.328,41.003 93.868,42.726 94.259,43.511 97.328,41.983 97.328,42.453 93.652,44.283       94.043,45.068 97.328,43.432 97.328,43.902 93.436,45.839 93.827,46.624 97.328,44.881 97.328,45.351 93.22,47.396       93.611,48.181 97.328,46.331 97.328,46.8 93.004,48.953 93.395,49.738 97.328,47.78 97.328,48.25 92.788,50.51 93.179,51.295       97.328,49.229 97.328,49.699 92.573,52.066 92.963,52.851 97.328,50.678 97.328,51.148 92.357,53.623 92.748,54.408       97.328,52.128 97.328,59.32 98.529,59.32 98.529,52.172 103.019,54.408     "/></g></g><g opacity="0.6"><g><polygon fill="#FFFFFF" points="41.565,82.585 34.961,79.296 34.961,78.661 40.744,81.54 41.273,80.478 34.961,77.335       34.961,76.7 40.452,79.434 40.981,78.372 34.961,75.374 34.961,74.739 40.16,77.327 40.689,76.265 34.961,73.413 34.961,72.778       39.868,75.221 40.397,74.159 34.961,71.452 34.961,70.817 39.576,73.115 40.105,72.052 34.961,69.491 34.961,68.856       39.284,71.008 39.813,69.946 34.961,67.53 34.961,66.895 38.992,68.902 39.521,67.84 34.961,65.569 34.961,65.509       34.148,64.198 33.335,65.509 28.654,67.84 29.183,68.902 33.335,66.834 33.335,67.47 28.362,69.946 28.891,71.008       33.335,68.795 33.335,69.431 28.07,72.052 28.599,73.115 33.335,70.756 33.335,71.392 27.778,74.159 28.306,75.221       33.335,72.717 33.335,73.353 27.486,76.265 28.014,77.327 33.335,74.678 33.335,75.314 27.193,78.372 27.722,79.434       33.335,76.639 33.335,77.275 26.901,80.478 27.43,81.54 33.335,78.6 33.335,79.236 26.609,82.585 27.138,83.647 33.335,80.561       33.335,90.293 34.961,90.293 34.961,80.622 41.036,83.647     "/></g></g><g opacity="0.6"><g><polygon fill="#FFFFFF" points="26.189,86.086 21.308,83.656 21.308,83.186 25.583,85.314 25.973,84.529 21.308,82.206       21.308,81.737 25.367,83.757 25.758,82.972 21.308,80.757 21.308,80.287 25.151,82.201 25.542,81.416 21.308,79.308       21.308,78.838 24.935,80.644 25.326,79.859 21.308,77.859 21.308,77.389 24.719,79.087 25.11,78.302 21.308,76.409       21.308,75.94 24.503,77.53 24.894,76.746 21.308,74.96 21.308,74.49 24.287,75.974 24.678,75.189 21.308,73.511 21.308,73.466       20.708,72.498 20.107,73.466 16.647,75.189 17.038,75.974 20.107,74.446 20.107,74.915 16.432,76.746 16.822,77.53       20.107,75.895 20.107,76.365 16.216,78.302 16.607,79.087 20.107,77.344 20.107,77.814 16,79.859 16.391,80.644 20.107,78.793       20.107,79.263 15.784,81.416 16.175,82.201 20.107,80.243 20.107,80.712 15.568,82.972 15.959,83.757 20.107,81.692       20.107,82.162 15.352,84.529 15.743,85.314 20.107,83.141 20.107,83.611 15.136,86.086 15.527,86.871 20.107,84.59       20.107,91.783 21.308,91.783 21.308,84.635 25.799,86.871     "/></g></g><g><g><g><g><path d="M128,64c0,35.35-28.65,64-64,64c-25.82,0-48.07-15.29-58.18-37.3c11.65-0.78,41.7-4.02,66.38-17.15        c16.03-8.53,35.6-31.07,49.34-37.61C125.68,44.41,128,53.93,128,64z" fill="#CBEAED"/></g></g></g></g></g><g><g><g><circle cx="60.66" cy="14.071" fill="#FFFFFF" r="1.681"/></g></g><g><g><circle cx="71.44" cy="10.71" fill="#FFFFFF" r="1.681"/></g></g><g><g><circle cx="57.299" cy="37.845" fill="#FFFFFF" r="1.681"/></g></g><g><g><circle cx="84.511" cy="27.941" fill="#FFFFFF" r="1.681"/></g></g><g><g><circle cx="66.62" cy="24.418" fill="#FFFFFF" r="1.681"/></g></g><g><g><circle cx="50.177" cy="23.578" fill="#EDE8EE" r="0.84"/></g></g><g><g><circle cx="63.684" cy="32.174" fill="#FFFFFF" r="0.84"/></g></g><g><g><circle cx="92.448" cy="22.918" fill="#FFFFFF" r="1.681"/></g></g><g><g><circle cx="98.833" cy="17.247" fill="#FFFFFF" r="0.84"/></g></g><g><g><circle cx="79.801" cy="15.829" fill="#EDE8EE" r="0.84"/></g></g></g><g><g><g><circle cx="12.934" cy="42.746" fill="#FFFFFF" r="1.681"/></g></g><g><g><circle cx="23.715" cy="39.385" fill="#FFFFFF" r="1.681"/></g></g><g><g><circle cx="9.573" cy="66.52" fill="#FFFFFF" r="1.681"/></g></g><g><g><circle cx="36.785" cy="56.616" fill="#FFFFFF" r="1.681"/></g></g><g><g><circle cx="18.895" cy="53.093" fill="#FFFFFF" r="1.681"/></g></g><g><g><circle cx="2.452" cy="52.252" fill="#EDE8EE" r="0.84"/></g></g><g><g><circle cx="15.958" cy="60.849" fill="#FFFFFF" r="0.84"/></g></g><g><g><circle cx="32.076" cy="44.503" fill="#EDE8EE" r="0.84"/></g></g><g><g><circle cx="41.651" cy="34.1" fill="#EDE8EE" r="0.84"/></g></g><g><g><circle cx="57.611" cy="25.025" fill="#EDE8EE" r="0.84"/></g></g></g><g><g><g><path d="M128,63.77l-52.23,37.24c-1.55,1.1-3.71,0.74-4.81-0.8c-0.43-0.6-0.64-1.3-0.64-1.99      c0-1.08,0.51-2.15,1.45-2.82l55.69-39.71C127.81,58.33,127.99,61.03,128,63.77z" fill="#BFC4D8"/></g></g><g><g><path d="M127.23,54.07L65.85,97.83c-1.54,1.1-3.71,0.74-4.81-0.81c-0.43-0.6-0.63-1.29-0.63-1.98      c0-1.08,0.5-2.15,1.44-2.82l63.79-45.48C126.32,49.13,126.85,51.57,127.23,54.07z" fill="#BFC4D8"/></g></g><g><g><path d="M66.516,28.868v1.635l0.937-0.023l0.157-1.633C67.255,28.906,66.873,28.906,66.516,28.868z" fill="#9B7BAD"/></g><g><path d="M69.634,25.633c0.338-0.282,0.691-0.782,0.575-1.612c-0.135-0.966-0.557-0.689-0.841-0.368h0.065      l-0.517,4.064c-0.125,0.715-0.67,1.024-1.307,1.13l-0.157,1.633l3.417,0.023v-3.335C70.314,26.748,69.914,26.203,69.634,25.633z      " fill="#FFFFFF"/></g><g><path d="M68.575,23.891c-1.039-0.316-1.857-0.916-2.074-1.086l-2.223-0.046c0,0-0.081,1.773,0.305,3.354h3.719      L68.575,23.891z" fill="#FFFFFF"/></g><g><path d="M71.755,20.22c-0.979-1.842-2.504-1.353-2.994-1.353c-0.489,0-1.698,0.835-2.965,0.835      c-1.267,0-1.519-0.691-1.519-0.691c-2.382,1.785,0,3.747,0,3.747l2.223,0.046c0.218,0.17,1.035,0.77,2.074,1.086l-0.274,2.221      h-3.719h0c0,0-0.168,2.279,1.051,2.597c0.24,0.063,0.55,0.125,0.883,0.16c0.357,0.037,0.739,0.037,1.094-0.022      c0.637-0.106,1.183-0.415,1.307-1.13l0.517-4.064h-0.065c0.284-0.32,0.706-0.598,0.841,0.368      c0.116,0.83-0.237,1.329-0.575,1.612c0.28,0.571,0.679,1.116,1.235,1.536c0.127,0.096,0.254,0.193,0.399,0.273l0.121-1.692      C71.39,25.75,72.733,22.062,71.755,20.22z" fill="#173842"/></g></g><g><g><path d="M99.08,84.456L47.8,121.023c-1.543,1.1-3.705,0.738-4.805-0.805l0,0c-1.1-1.543-0.738-3.705,0.805-4.805      l51.28-36.566c1.543-1.1,3.705-0.738,4.805,0.805h0C100.985,81.194,100.623,83.356,99.08,84.456z" fill="#828AC4"/></g></g><g><g><path d="M86.426,83.223l-48.613,34.664c-1.505,1.073-3.614,0.72-4.688-0.785l-0.098-0.137      c-1.073-1.505-0.72-3.614,0.785-4.688l48.613-34.664c1.505-1.073,3.614-0.72,4.688,0.785l0.098,0.137      C88.284,80.04,87.931,82.15,86.426,83.223z" fill="#828AC4"/></g></g><g><g><path d="M66.138,90.293l3.299,8.207c0,0-4.562,2.938-4.062,4s2.625,1.188,4.062,0.312s4.625-3.625,4.625-3.625      l-2.622-9.562L66.138,90.293z" fill="#B99AC8"/></g></g><g><g><path d="M57.299,90.293l1.369,6.666c0,0-4.562,2.938-4.062,4s2.625,1.188,4.062,0.312s4.625-3.625,4.625-3.625      l-1.042-7.354H57.299z" fill="#B99AC8"/></g></g></g><g><g><path d="M65.796,19.702c0,0,3.97,1.07,3.838,5.931l0.125,4.87l3.361,0c0,0,2.025-7.986-0.308-10.128     S68.301,18.087,65.796,19.702z" fill="#B99AC8"/></g></g><g><g><path d="M76.588,30.48c0,0-4.921,1.694-2.551,6.354c1.413,2.777,8.793,6.906,8.793,6.906l0.67,16.148l3.667,0.917     L87.75,44.75C87.75,44.75,82.5,31.334,76.588,30.48z" fill="#B99AC8"/></g></g><g><g><g><polygon fill="#B2B2B2" points="40.34,44.673 38.026,44.73 39.057,48.853 40.833,47.334     "/></g></g><g><g><rect fill="#173842" height="48.116" transform="matrix(0.9366 -0.3503 0.3503 0.9366 -19.8794 20.3264)" width="0.667" x="45.908" y="41.051"/></g></g></g><g><g><rect fill="#173842" height="48.116" transform="matrix(0.5 -0.866 0.866 0.5 -10.9881 121.437)" width="0.667" x="99.34" y="46.176"/></g></g><g><g><path d="M63.982,23.309l4.319,0.212c0,0-0.648,2.511-1.866,0.747c0,0-0.398-0.424-0.667-0.104     c-0.269,0.32-1.061,1.129-1.521,0.345S63.982,23.309,63.982,23.309z" fill="#B99AC8"/></g></g><g><g><path d="M39.057,48.853L39.057,48.853c-0.867,0.217-1.754-0.315-1.97-1.183l-0.242-0.97     c-0.217-0.867,0.315-1.754,1.183-1.97h0c0.867-0.217,1.754,0.315,1.97,1.183l0.242,0.97     C40.456,47.75,39.924,48.637,39.057,48.853z" fill="#FFFFFF"/></g></g><g><g><path d="M84.154,60.051c0,0-0.821,1.616-0.446,2.116s1.79,1.617,2.25,1.208c0.46-0.409,0.627-2.716,0.627-2.716     L84.154,60.051z" fill="#FFFFFF"/></g></g><g><g><path d="M62.417,56.64c-2.036,2.874-8.934,13.912-6.042,27.985l0.924,5.668h4.951c0,0-1.25-8.993-0.25-13.143     s4.125-11.54,4.125-11.54S62.75,77.336,64,81.981s2.138,8.312,2.138,8.312l5.302-0.668c0,0-3.128-10.794,2.185-20.231     c3.476-6.174,5.674-6.939,3.276-11.241L62.417,56.64z" fill="#173842"/></g><g><path d="M77.417,58.207l3.459-23.077c0.203-2.505-1.775-4.65-4.288-4.65l-14.827,0     c-1.04,0-1.705,0.988-2.057,2.174c-1.451,1.643-6.604,7.146-11.782,8.673l-7.755,2.413l0.667,3.594c0,0,8.424,0.143,19.133-5.924     l1.367,15.117l1.084,0.113l14.484,1.513L77.417,58.207z" fill="#B99AC8"/></g></g><g><g><path d="M87.48,44.604c-0.171,0-0.338-0.088-0.431-0.247c-0.141-0.238-0.061-0.544,0.178-0.684l5.422-3.185     c0.234-0.14,0.543-0.062,0.684,0.178c0.141,0.238,0.061,0.544-0.178,0.684l-5.422,3.185     C87.654,44.581,87.567,44.604,87.48,44.604z" fill="#FAFCFC"/></g></g><g><g><path d="M93.345,31.489c-0.171,0-0.338-0.088-0.431-0.247c-0.141-0.238-0.061-0.544,0.178-0.684l1.583-0.93     c0.233-0.14,0.544-0.062,0.684,0.178c0.141,0.238,0.061,0.544-0.178,0.684l-1.583,0.93     C93.519,31.467,93.432,31.489,93.345,31.489z" fill="#FAFCFC"/></g></g><g><g><path d="M46.241,57.795c-0.171,0-0.338-0.088-0.431-0.247c-0.141-0.237-0.061-0.544,0.178-0.684l1.584-0.931     c0.233-0.14,0.543-0.062,0.684,0.178c0.141,0.237,0.061,0.544-0.178,0.684l-1.584,0.931     C46.415,57.772,46.328,57.795,46.241,57.795z" fill="#FAFCFC"/></g></g><g><g><path d="M59.868,86.765c-0.171,0-0.338-0.088-0.432-0.247c-0.14-0.238-0.06-0.544,0.179-0.685l1.584-0.93     c0.234-0.137,0.543-0.062,0.685,0.179c0.14,0.238,0.06,0.544-0.179,0.685l-1.584,0.93C60.042,86.742,59.955,86.765,59.868,86.765     z" fill="#FAFCFC"/></g></g><g><g><path d="M76.334,72.022c-0.171,0-0.338-0.088-0.431-0.247c-0.141-0.237-0.061-0.544,0.178-0.684l1.584-0.931     c0.233-0.14,0.544-0.062,0.684,0.178c0.141,0.237,0.061,0.544-0.178,0.684l-1.584,0.931C76.508,72,76.421,72.022,76.334,72.022z" fill="#FAFCFC"/></g></g><g><g><path d="M73.271,49.223c-0.171,0-0.338-0.088-0.432-0.247c-0.14-0.238-0.06-0.544,0.179-0.685l1.584-0.93     c0.233-0.137,0.543-0.062,0.685,0.179c0.14,0.238,0.06,0.544-0.179,0.685l-1.584,0.93C73.444,49.2,73.357,49.223,73.271,49.223z" fill="#FAFCFC"/></g></g><g><g><path d="M83.09,37.677c-0.171,0-0.338-0.088-0.431-0.247c-0.141-0.238-0.061-0.544,0.178-0.684l1.583-0.93     c0.234-0.14,0.544-0.062,0.684,0.178c0.141,0.238,0.061,0.544-0.178,0.684l-1.583,0.93C83.264,37.654,83.177,37.677,83.09,37.677     z" fill="#FAFCFC"/></g></g><g><g><path d="M99.505,42.784c-0.171,0-0.338-0.088-0.431-0.247c-0.141-0.238-0.061-0.544,0.178-0.684l1.583-0.93     c0.233-0.141,0.543-0.062,0.684,0.178c0.141,0.238,0.061,0.544-0.178,0.684l-1.583,0.93     C99.679,42.762,99.592,42.784,99.505,42.784z" fill="#FAFCFC"/></g></g><g><g><path d="M87.633,51.285c-0.171,0-0.338-0.088-0.432-0.247c-0.14-0.238-0.06-0.544,0.179-0.685l1.584-0.93     c0.233-0.137,0.543-0.062,0.685,0.179c0.14,0.238,0.06,0.544-0.179,0.685l-1.584,0.93C87.807,51.263,87.72,51.285,87.633,51.285z     " fill="#FAFCFC"/></g></g><g><g><path d="M81.394,57.795c-0.171,0-0.338-0.088-0.432-0.247c-0.14-0.238-0.06-0.544,0.179-0.685l0.792-0.465     c0.234-0.136,0.543-0.062,0.685,0.179c0.14,0.238,0.06,0.544-0.179,0.685l-0.792,0.465C81.567,57.772,81.48,57.795,81.394,57.795     z" fill="#FAFCFC"/></g></g><g><g><path d="M80.412,49.351c-0.171,0-0.338-0.088-0.431-0.247c-0.141-0.237-0.061-0.544,0.178-0.684l1.584-0.931     c0.234-0.141,0.543-0.063,0.684,0.178c0.141,0.237,0.061,0.544-0.178,0.684l-1.584,0.931     C80.586,49.328,80.499,49.351,80.412,49.351z" fill="#FAFCFC"/></g></g><g><g><path d="M69.129,81.174c-0.171,0-0.338-0.088-0.431-0.247c-0.141-0.237-0.061-0.544,0.178-0.684l4.623-2.716     c0.234-0.141,0.544-0.062,0.684,0.178c0.141,0.237,0.061,0.544-0.178,0.684l-4.623,2.716     C69.303,81.151,69.216,81.174,69.129,81.174z" fill="#FAFCFC"/></g></g></g></svg>